<mxfile host="app.diagrams.net" agent="Mozilla/5.0 (Windows NT 10.0; Win64; x64) AppleWebKit/537.36 (KHTML, like Gecko) Chrome/132.0.0.0 Safari/537.36" version="26.0.11">
  <diagram name="Página-1" id="sJ8FpPoxX_cDMZ1G_iWL">
    <mxGraphModel dx="1434" dy="720" grid="1" gridSize="10" guides="1" tooltips="1" connect="1" arrows="1" fold="1" page="1" pageScale="1" pageWidth="827" pageHeight="1169" math="0" shadow="0">
      <root>
        <mxCell id="0" />
        <mxCell id="1" parent="0" />
        <mxCell id="dbxxkLrnTNXhSZVxiJWv-4" style="edgeStyle=orthogonalEdgeStyle;rounded=0;orthogonalLoop=1;jettySize=auto;html=1;exitX=0.5;exitY=1;exitDx=0;exitDy=0;entryX=0.5;entryY=0;entryDx=0;entryDy=0;" edge="1" parent="1" source="dbxxkLrnTNXhSZVxiJWv-1" target="dbxxkLrnTNXhSZVxiJWv-3">
          <mxGeometry relative="1" as="geometry" />
        </mxCell>
        <mxCell id="dbxxkLrnTNXhSZVxiJWv-1" value="inicio" style="ellipse;whiteSpace=wrap;html=1;fillColor=#dae8fc;strokeColor=#6c8ebf;" vertex="1" parent="1">
          <mxGeometry x="360" width="120" height="80" as="geometry" />
        </mxCell>
        <mxCell id="dbxxkLrnTNXhSZVxiJWv-2" value="fin" style="ellipse;whiteSpace=wrap;html=1;fillColor=#f8cecc;strokeColor=#b85450;" vertex="1" parent="1">
          <mxGeometry x="360" y="360" width="120" height="80" as="geometry" />
        </mxCell>
        <mxCell id="dbxxkLrnTNXhSZVxiJWv-9" style="edgeStyle=orthogonalEdgeStyle;rounded=0;orthogonalLoop=1;jettySize=auto;html=1;entryX=0.5;entryY=0;entryDx=0;entryDy=0;" edge="1" parent="1" source="dbxxkLrnTNXhSZVxiJWv-3" target="dbxxkLrnTNXhSZVxiJWv-5">
          <mxGeometry relative="1" as="geometry" />
        </mxCell>
        <mxCell id="dbxxkLrnTNXhSZVxiJWv-3" value="ingrese un número" style="shape=parallelogram;perimeter=parallelogramPerimeter;whiteSpace=wrap;html=1;fixedSize=1;" vertex="1" parent="1">
          <mxGeometry x="360" y="110" width="120" height="50" as="geometry" />
        </mxCell>
        <mxCell id="dbxxkLrnTNXhSZVxiJWv-17" style="edgeStyle=orthogonalEdgeStyle;rounded=0;orthogonalLoop=1;jettySize=auto;html=1;entryX=0;entryY=0.75;entryDx=0;entryDy=0;" edge="1" parent="1" source="dbxxkLrnTNXhSZVxiJWv-5" target="dbxxkLrnTNXhSZVxiJWv-10">
          <mxGeometry relative="1" as="geometry" />
        </mxCell>
        <mxCell id="dbxxkLrnTNXhSZVxiJWv-18" value="no" style="edgeLabel;html=1;align=center;verticalAlign=middle;resizable=0;points=[];" vertex="1" connectable="0" parent="dbxxkLrnTNXhSZVxiJWv-17">
          <mxGeometry x="-0.1017" y="1" relative="1" as="geometry">
            <mxPoint as="offset" />
          </mxGeometry>
        </mxCell>
        <mxCell id="dbxxkLrnTNXhSZVxiJWv-19" style="edgeStyle=orthogonalEdgeStyle;rounded=0;orthogonalLoop=1;jettySize=auto;html=1;exitX=0;exitY=0.5;exitDx=0;exitDy=0;" edge="1" parent="1">
          <mxGeometry relative="1" as="geometry">
            <mxPoint x="381" y="239" as="sourcePoint" />
            <mxPoint x="307.66666666666674" y="259" as="targetPoint" />
            <Array as="points">
              <mxPoint x="351" y="239" />
              <mxPoint x="351" y="259" />
            </Array>
          </mxGeometry>
        </mxCell>
        <mxCell id="dbxxkLrnTNXhSZVxiJWv-20" value="si" style="edgeLabel;html=1;align=center;verticalAlign=middle;resizable=0;points=[];" vertex="1" connectable="0" parent="dbxxkLrnTNXhSZVxiJWv-19">
          <mxGeometry x="-0.1429" y="1" relative="1" as="geometry">
            <mxPoint as="offset" />
          </mxGeometry>
        </mxCell>
        <mxCell id="dbxxkLrnTNXhSZVxiJWv-5" value="num % 2 ==0" style="rhombus;whiteSpace=wrap;html=1;" vertex="1" parent="1">
          <mxGeometry x="380" y="200" width="80" height="80" as="geometry" />
        </mxCell>
        <mxCell id="dbxxkLrnTNXhSZVxiJWv-22" style="edgeStyle=orthogonalEdgeStyle;rounded=0;orthogonalLoop=1;jettySize=auto;html=1;exitX=0.5;exitY=1;exitDx=0;exitDy=0;entryX=1;entryY=0.5;entryDx=0;entryDy=0;" edge="1" parent="1" source="dbxxkLrnTNXhSZVxiJWv-10" target="dbxxkLrnTNXhSZVxiJWv-2">
          <mxGeometry relative="1" as="geometry" />
        </mxCell>
        <mxCell id="dbxxkLrnTNXhSZVxiJWv-10" value="el número es impar" style="shape=parallelogram;perimeter=parallelogramPerimeter;whiteSpace=wrap;html=1;fixedSize=1;" vertex="1" parent="1">
          <mxGeometry x="520" y="220" width="120" height="60" as="geometry" />
        </mxCell>
        <mxCell id="dbxxkLrnTNXhSZVxiJWv-21" style="edgeStyle=orthogonalEdgeStyle;rounded=0;orthogonalLoop=1;jettySize=auto;html=1;exitX=0.358;exitY=1;exitDx=0;exitDy=0;exitPerimeter=0;" edge="1" parent="1" source="dbxxkLrnTNXhSZVxiJWv-12">
          <mxGeometry relative="1" as="geometry">
            <mxPoint x="360" y="400" as="targetPoint" />
            <mxPoint x="240" y="350" as="sourcePoint" />
            <Array as="points">
              <mxPoint x="240" y="280" />
              <mxPoint x="240" y="400" />
            </Array>
          </mxGeometry>
        </mxCell>
        <mxCell id="dbxxkLrnTNXhSZVxiJWv-12" value="el número es par" style="shape=parallelogram;perimeter=parallelogramPerimeter;whiteSpace=wrap;html=1;fixedSize=1;" vertex="1" parent="1">
          <mxGeometry x="200" y="220" width="120" height="60" as="geometry" />
        </mxCell>
      </root>
    </mxGraphModel>
  </diagram>
</mxfile>
